<svg viewBox="0 0 51 33" fill="none" xmlns="http://www.w3.org/2000/svg">
<path d="M50.782 31.189V28.768C50.782 28.318 50.025 27.889 48.666 27.502L48.699 24.489C48.699 19.847 47.259 15.318 44.573 11.514C41.8775 7.70244 38.078 4.80906 33.687 3.224L33.59 2.62C33.5397 2.29645 33.3981 1.99396 33.182 1.748C32.9648 1.50109 32.6823 1.3205 32.367 1.227C28.146 -0.000206709 23.6629 -0.000206709 19.442 1.227C19.125 1.32 18.842 1.5 18.624 1.747C18.407 1.993 18.264 2.295 18.214 2.619L18.121 3.182C13.7032 4.75195 9.87583 7.64394 7.15899 11.465C4.45538 15.2695 3.00192 19.8207 2.99999 24.488V27.514C1.65999 27.9 0.912988 28.324 0.912988 28.771V31.192C0.891335 31.3341 0.922271 31.4791 0.999988 31.6C1.6684 31.1059 2.4344 30.7599 3.24699 30.585C5.31899 30.085 7.42599 29.735 9.54999 29.539C10.1446 29.4725 10.7465 29.5323 11.3163 29.7144C11.8862 29.8966 12.4112 30.197 12.857 30.596C14.5038 32.0854 16.6455 32.9094 18.866 32.908H32.83C35.0505 32.9093 37.192 32.0845 38.838 30.594C39.283 30.1929 39.8077 29.8903 40.3778 29.7061C40.9478 29.5218 41.5504 29.4601 42.146 29.525C44.269 29.721 46.376 30.069 48.448 30.567C49.218 30.7128 49.9458 31.0288 50.578 31.492C50.613 31.527 50.656 31.558 50.686 31.591C50.7646 31.4726 50.7986 31.3301 50.782 31.189Z" fill="#FFF100"/>
</svg>
